Coordinates
version=1
nRows=9
nColumns=40
inDegrees=yes

Units are S.I. units (second, meters, Newtons, ...)
If the header above contains a line with 'inDegrees', this indicates whether rotational values are in degrees (yes) or radians (no).

endheader
time	pelvis_tilt	pelvis_list	pelvis_rotation	pelvis_tx	pelvis_ty	pelvis_tz	hip_flexion_r	hip_adduction_r	hip_rotation_r	knee_angle_r	knee_angle_r_beta	ankle_angle_r	subtalar_angle_r	mtp_angle_r	hip_flexion_l	hip_adduction_l	hip_rotation_l	knee_angle_l	knee_angle_l_beta	ankle_angle_l	subtalar_angle_l	mtp_angle_l	lumbar_extension	lumbar_bending	lumbar_rotation	arm_flex_r	arm_add_r	arm_rot_r	elbow_flex_r	pro_sup_r	wrist_flex_r	wrist_dev_r	arm_flex_l	arm_add_l	arm_rot_l	elbow_flex_l	pro_sup_l	wrist_flex_l	wrist_dev_l
      8.00000000000000000000	    -10.09616711590202342563	      0.89814081387896727016	   -175.71686113697262499045	      0.23363331838324505330	      0.64122536827447207397	     -0.90231367463839529108	     48.01725228932173195062	    -49.74532438138026435581	     -4.78217841698756096491	     75.80417501226638421485	      1.32303244072206149795	     13.06658846954023722731	      0.00000000000000000000	      0.00000000000000000000	     56.74810399228792334725	    -49.73088003457154115949	      1.50069083918458767712	     78.86539557031548497434	      1.37646081858975644074	     10.34971803492440756145	      0.00000000000000000000	      0.00000000000000000000	    -63.78948225887179290794	      5.05442675730676516110	     -4.01003810124283521787	     42.57785418997683279940	      1.54491520051540209835	     35.99057290841623313327	      3.72944749119380292157	     12.94646330893176155996	      0.00000000000000000000	      0.00000000000000000000	     48.14366236528393017124	     -5.46670412445170406102	     72.37285027983763541215	      5.24942732240910459041	     81.03998824685118052003	      0.00000000000000000000	      0.00000000000000000000
      8.00500000000000078160	    -10.04874865367253811144	      0.85927437418149876791	   -175.73993753449840937719	      0.23333113570637009637	      0.64154559310216507928	     -0.90212381241895811534	     48.04196226576934236618	    -49.74600667754170757462	     -4.72869898792228315898	     75.73075569833258668950	      1.32175103195936127776	     13.05101792794357074001	      0.00000000000000000000	      0.00000000000000000000	     56.63700582759850732373	    -49.73213858625596373031	      1.34655377737669068594	     78.81270550520622464319	      1.37554120347050967688	     10.31816885057468446973	      0.00000000000000000000	      0.00000000000000000000	    -63.79391894433805276776	      5.03148291084682863783	     -4.05100651544719259078	     42.59789941067880647552	      1.54398991404670793415	     35.82304634541964105665	      3.75101486065972666850	     13.07452456691730446892	      0.00000000000000000000	      0.00000000000000000000	     48.14557581662153040725	     -5.46442786096948207586	     72.19144201317065778767	      5.29300626011818220462	     80.69719612598204605547	      0.00000000000000000000	      0.00000000000000000000
      8.00999999999999978684	    -10.01963470678840728567	      0.79760461925610970368	   -175.76224822691099802796	      0.23305273062365300385	      0.64196958766186063006	     -0.90192836720313040999	     48.05161731730379415239	    -49.74954783395865831608	     -4.64653656533989689592	     75.62713817922900716439	      1.31994256508825569263	     13.02199103565533988558	      0.00000000000000000000	      0.00000000000000000000	     56.45138703353745057711	    -49.73760154040102321460	      1.14235825223991604993	     78.75915702897229664359	      1.37460660625080155484	     10.27895399378806118307	      0.00000000000000000000	      0.00000000000000000000	    -63.82229214600054945095	      5.00555427797098051457	     -4.10829417687925779745	     42.62970370084052973425	      1.57227375690345572146	     35.62535624711372150841	      3.77679163064073497580	     12.96740757419604150869	      0.00000000000000000000	      0.00000000000000000000	     48.16054441214438952557	     -5.44740776485661015727	     71.96095783747371399386	      5.26256788970071198719	     80.92624093680893793135	      0.00000000000000000000	      0.00000000000000000000
      8.01500000000000056843	    -10.11705892509522719536	      0.80791366307076206699	   -175.73629353330733238181	      0.23274631611866644643	      0.64267121063929466551	     -0.90163497238458678584	     47.71992107896470969308	    -49.75399891740551794328	     -4.83511767764561550820	     75.49658361569304076966	      1.31766395810104897102	     13.08853652596597072488	      0.00000000000000000000	      0.00000000000000000000	     56.18997624321142581039	    -49.73588985234223969201	      1.00905040637403131676	     78.66913896562836328030	      1.37303549465918117711	     10.43801531465010334898	      0.00000000000000000000	      0.00000000000000000000	    -64.01178745139998227387	      5.09493848314617547857	     -4.19038291958303865670	     42.84015096311063786061	      1.78060678072807454519	     34.33696031120457803354	      3.32941873620297057457	     15.80621102545110545634	      0.00000000000000000000	      0.00000000000000000000	     47.99876937315342217971	     -5.16758462164865761679	     69.16319519347203481630	      4.98170015748389705124	     76.86427883323108289915	      0.00000000000000000000	      0.00000000000000000000
      8.01999999999999957367	     -9.99908563577609221795	      0.74741342387119380497	   -175.76833636723992526640	      0.23252540394761894715	      0.64277438824869059797	     -0.90157965690360453159	     47.92886363826919193798	    -49.74956342706921219587	     -4.65425170425502443550	     75.45823511290231522253	      1.31699465046414054825	     12.96176385616528925482	      0.00000000000000000000	      0.00000000000000000000	     56.22711590936640391192	    -49.73438231384294283544	      0.87851319036659980544	     78.67847848699932455929	      1.37319850005766475043	     10.27695181669621504739	      0.00000000000000000000	      0.00000000000000000000	    -63.91428682190444021671	      5.00422873248083099895	     -4.16088830569738643561	     42.69523875708250670868	      1.61877455728788777201	     35.39050230935533392085	      3.78760461293567951557	     12.84581361819485678666	      0.00000000000000000000	      0.00000000000000000000	     48.19548102925902810512	     -5.47527654518167583575	     71.81893335060108540802	      5.30532858857429534538	     80.97019941946969368018	      0.00000000000000000000	      0.00000000000000000000
      8.02500000000000035527	    -10.01187695404050437276	      0.71699804258183408301	   -175.78574209236808201240	      0.23219911935992329499	      0.64322873334415908708	     -0.90141807329466572263	     47.84257610574417896032	    -49.75154972677037079620	     -4.65627847550900408891	     75.37455826239595069183	      1.31553421391510538818	     12.93511687964920398031	      0.00000000000000000000	      0.00000000000000000000	     56.02815405150691674407	    -49.73726702622415984933	      0.70439200212823749325	     78.61155372662257434513	      1.37203044263798235036	     10.32093058579669531127	      0.00000000000000000000	      0.00000000000000000000	    -63.97364485336086659117	      4.96452282756698082267	     -4.07163002449257227511	     42.68035702185199653513	      1.54407395323981666557	     34.63020636774781024769	      3.73362121921551004533	     14.55787570912722372896	      0.00000000000000000000	      0.00000000000000000000	     48.19488935616096370040	     -5.46532745453710866457	     73.10465275546003738327	      5.39759538443317055112	     79.24414601023798354618	      0.00000000000000000000	      0.00000000000000000000
      8.02999999999999936051	     -9.90772002581012145583	      0.78400443659763385806	   -175.73504237817905959673	      0.23186948459060410799	      0.64332555793316337223	     -0.90107194449531724523	     47.79135832997368282804	    -49.74941547574949396449	     -4.80428602395529846802	     75.32147391034806105381	      1.31460771719058189255	     12.90165702532336666764	      0.00000000000000000000	      0.00000000000000000000	     56.24266052473706878345	    -49.73547150963088370190	      0.82174141897489416664	     78.64584402046729394442	      1.37262892116704904311	     10.28965640928666225307	      0.00000000000000000000	      0.00000000000000000000	    -63.90470087048417724418	      5.09233952883450946558	     -4.09726098901138513497	     42.74151256850842628410	      1.58652832386394160302	     34.92478059220217545544	      3.77931186303440780350	     12.98503835046629006911	      0.00000000000000000000	      0.00000000000000000000	     48.18103918859014811460	     -5.40861512069985828077	     71.66955203679921737603	      5.31728002045244974028	     80.84738664432312305053	      0.00000000000000000000	      0.00000000000000000000
      8.03500000000000014211	     -9.89275980908136354230	      0.86139658137939856264	   -175.67569058769979051249	      0.23156783947217196573	      0.64364793638990980273	     -0.90069649519220051914	     47.57867857279018153349	    -49.74931429694752438309	     -5.03894877028269405628	     75.22072903334125726360	      1.31284938738229639554	     12.85472383588552958145	      0.00000000000000000000	      0.00000000000000000000	     56.32221208529946210319	    -49.73455660508614784021	      0.91113879432019828641	     78.63163507729231582744	      1.37238092832541691557	     10.30368218527317303312	      0.00000000000000000000	      0.00000000000000000000	    -63.92809854301858507597	      5.21701113134352745249	     -4.04523368356509127608	     42.77087491760129722707	      1.57895566587375890677	     34.84574949617326211637	      3.77146657804130169822	     12.93495076969782964227	      0.00000000000000000000	      0.00000000000000000000	     48.16507178732032912194	     -5.35027816925910748580	     71.51437293984736243146	      5.26749946385313094765	     80.78979203535268993619	      0.00000000000000000000	      0.00000000000000000000
      8.03999999999999914735	     -9.88519264205278780366	      0.84165797439389988810	   -175.67779019956611818998	      0.23133789728735754121	      0.64396661957216883021	     -0.90053262917057452785	     47.51347274619165261811	    -49.74985027876002163794	     -5.04241834782560793826	     75.15420466224972528835	      1.31168831807393071465	     12.83177891358432987090	      0.00000000000000000000	      0.00000000000000000000	     56.23472646304958999508	    -49.73564005615246230718	      0.80892894244280866278	     78.60761581793937580187	      1.37196171316581749799	     10.29597804689487361429	      0.00000000000000000000	      0.00000000000000000000	    -63.96066592216472912469	      5.19975953542156243969	     -3.97430709775739021694	     42.77422481300219914147	      1.49344188794328713854	     34.30854014216749447996	      3.71773555832416269240	     13.92291412399104899578	      0.00000000000000000000	      0.00000000000000000000	     48.20261359983506821436	     -5.29887771249487293801	     72.13276261341054862442	      5.28552380749424255413	     80.17764625497471797644	      0.00000000000000000000	      0.00000000000000000000
